<svg width="41" height="41" viewBox="0 0 41 41" fill="none" xmlns="http://www.w3.org/2000/svg">
<path fill-rule="evenodd" clip-rule="evenodd" d="M20.0883 40.9688C8.99386 40.9688 0 32.0144 0 20.9688C0 9.92306 8.99386 0.96875 20.0883 0.96875C31.1828 0.96875 40.1767 9.92306 40.1767 20.9688C40.1767 32.0144 31.1828 40.9688 20.0883 40.9688ZM20.957 15.978C19.1578 16.723 15.562 18.2651 10.1696 20.6041C9.29397 20.9508 8.83527 21.29 8.79352 21.6216C8.72294 22.182 9.42789 22.4027 10.3879 22.7033C10.5184 22.7441 10.6537 22.7865 10.7924 22.8314C11.7369 23.137 13.0073 23.4946 13.6678 23.5088C14.2669 23.5217 14.9356 23.2758 15.6738 22.7711C20.7121 19.3851 23.3129 17.6736 23.4762 17.6367C23.5914 17.6107 23.751 17.578 23.8591 17.6737C23.9673 17.7694 23.9567 17.9506 23.9452 17.9993C23.8754 18.2957 21.1082 20.857 19.6762 22.1825C19.2297 22.5957 18.9131 22.8888 18.8483 22.9557C18.7033 23.1057 18.5555 23.2475 18.4135 23.3839C17.5361 24.226 16.8781 24.8575 18.4499 25.8888C19.2053 26.3843 19.8097 26.7942 20.4127 27.203C21.0713 27.6495 21.7281 28.0948 22.578 28.6495C22.7945 28.7908 23.0013 28.9375 23.2027 29.0805C23.9691 29.6245 24.6576 30.1132 25.5082 30.0352C26.0025 29.99 26.5131 29.5272 26.7724 28.1471C27.3852 24.8856 28.5897 17.8189 28.8681 14.9068C28.8924 14.6517 28.8618 14.3252 28.8371 14.1818C28.8125 14.0385 28.761 13.8343 28.5739 13.6831C28.3522 13.5041 28.0101 13.4663 27.8571 13.4689C27.1614 13.4812 26.0939 13.8507 20.957 15.978Z" fill="white"/>
</svg>
