<svg width="173" height="20" viewBox="0 0 173 20" fill="none" xmlns="http://www.w3.org/2000/svg">
<path d="M0 14.5L0.04 14.3H0.3C0.726667 14.3 1.11333 14.2333 1.46 14.1C1.80667 13.9533 2.03333 13.62 2.14 13.1L4.56 1.7C4.58667 1.59333 4.60667 1.5 4.62 1.42C4.63333 1.32667 4.64 1.24 4.64 1.16C4.64 0.853333 4.50667 0.653333 4.24 0.56C3.98667 0.466666 3.64667 0.419999 3.22 0.419999H2.96L3 0.22H13.88L13.18 3.94H12.98C13.0067 3.78 13.0267 3.62667 13.04 3.48C13.0667 3.32 13.0867 3.16667 13.1 3.02C13.1133 2.87333 13.12 2.73333 13.12 2.6C13.12 2.2 13.0533 1.84 12.92 1.52C12.7867 1.18667 12.5733 0.92 12.28 0.72C12 0.52 11.62 0.419999 11.14 0.419999H7.98L6.62 6.88H11.14L11.12 7.08H6.58L5.04 14.3H8.5C9.04667 14.3 9.51333 14.22 9.9 14.06C10.2867 13.9 10.6067 13.6933 10.86 13.44C11.1267 13.1733 11.34 12.8933 11.5 12.6C11.6733 12.3067 11.8067 12.02 11.9 11.74L12.22 10.78H12.42L11.5 14.5H0Z" fill="#3F88E7"/>
<path d="M18.9153 14.7C17.462 14.7 16.3553 14.3333 15.5953 13.6C14.8486 12.8533 14.4753 11.7933 14.4753 10.42C14.4753 9.86 14.542 9.27333 14.6753 8.66C14.8086 8.03333 15.022 7.42 15.3153 6.82C15.622 6.22 16.022 5.68 16.5153 5.2C17.022 4.70667 17.642 4.31333 18.3753 4.02C19.1086 3.72667 19.9686 3.58 20.9553 3.58C21.982 3.58 22.7886 3.78 23.3753 4.18C23.962 4.56667 24.2553 5.13333 24.2553 5.88C24.2553 6.48 24.082 6.99333 23.7353 7.42C23.402 7.83333 22.9153 8.16667 22.2753 8.42C21.6353 8.67333 20.8686 8.86 19.9753 8.98C20.3753 9.02 20.7753 9.08667 21.1753 9.18C21.5886 9.27333 21.9686 9.41333 22.3153 9.6C22.6753 9.78667 22.962 10.04 23.1753 10.36C23.3886 10.6667 23.4953 11.06 23.4953 11.54C23.4953 12.14 23.322 12.68 22.9753 13.16C22.642 13.6267 22.1353 14 21.4553 14.28C20.7753 14.56 19.9286 14.7 18.9153 14.7ZM18.9153 14.5C19.2753 14.5 19.5953 14.38 19.8753 14.14C20.1553 13.8867 20.3753 13.5333 20.5353 13.08C20.6953 12.6133 20.7753 12.06 20.7753 11.42C20.7753 10.8867 20.7086 10.46 20.5753 10.14C20.442 9.82 20.262 9.58 20.0353 9.42C19.822 9.24667 19.5686 9.12667 19.2753 9.06C19.182 9.07333 19.0286 9.09333 18.8153 9.12C18.6153 9.13333 18.402 9.15333 18.1753 9.18C17.962 9.19333 17.782 9.2 17.6353 9.2C17.6086 9.36 17.582 9.59333 17.5553 9.9C17.5286 10.2067 17.5086 10.5067 17.4953 10.8C17.482 11.0933 17.4753 11.3067 17.4753 11.44C17.4753 12.2 17.5286 12.8067 17.6353 13.26C17.7553 13.7 17.922 14.02 18.1353 14.22C18.362 14.4067 18.622 14.5 18.9153 14.5ZM17.8353 9C18.3686 9 18.8553 8.91333 19.2953 8.74C19.7486 8.55333 20.1353 8.28667 20.4553 7.94C20.7753 7.59333 21.022 7.17333 21.1953 6.68C21.3686 6.18667 21.4553 5.62667 21.4553 5C21.4553 4.58667 21.3886 4.28 21.2553 4.08C21.1353 3.88 20.9486 3.78 20.6953 3.78C20.402 3.78 20.102 3.9 19.7953 4.14C19.502 4.36667 19.2153 4.70667 18.9353 5.16C18.6686 5.61333 18.422 6.16 18.1953 6.8C17.982 7.44 17.8086 8.17333 17.6753 9H17.8353Z" fill="#3F88E7"/>
<path d="M29.8291 14.7C28.3891 14.7 27.3157 14.4533 26.6091 13.96C25.9024 13.4667 25.5491 12.8133 25.5491 12C25.5491 11.4533 25.6624 11.0067 25.8891 10.66C26.1291 10.3133 26.4491 10.0267 26.8491 9.8C27.2491 9.57333 27.7024 9.38 28.2091 9.22C28.7157 9.04667 29.2357 8.86667 29.7691 8.68C30.4091 8.46667 30.9157 8.22667 31.2891 7.96C31.6757 7.69333 31.9491 7.37333 32.1091 7C32.2824 6.62667 32.3691 6.18 32.3691 5.66C32.3691 5.28667 32.2957 4.96 32.1491 4.68C32.0157 4.4 31.8091 4.18 31.5291 4.02C31.2491 3.86 30.8824 3.78 30.4291 3.78C29.7224 3.78 29.1691 3.99333 28.7691 4.42C28.3824 4.83333 28.1224 5.45333 27.9891 6.28C27.8157 6.25333 27.6557 6.16667 27.5091 6.02C27.3757 5.86 27.3091 5.68 27.3091 5.48C27.3091 5.21333 27.4157 4.93333 27.6291 4.64C27.8557 4.34667 28.2491 4.1 28.8091 3.9C29.3824 3.68667 30.1891 3.58 31.2291 3.58C32.2424 3.58 33.0424 3.68 33.6291 3.88C34.2157 4.08 34.6357 4.35333 34.8891 4.7C35.1557 5.03333 35.2891 5.41333 35.2891 5.84C35.2891 6.28 35.2024 6.65333 35.0291 6.96C34.8691 7.25333 34.6157 7.52 34.2691 7.76C33.9224 8 33.4691 8.22667 32.9091 8.44C32.3624 8.65333 31.7091 8.88667 30.9491 9.14C30.4424 9.3 30.0091 9.51333 29.6491 9.78C29.3024 10.0333 29.0357 10.36 28.8491 10.76C28.6624 11.16 28.5691 11.6533 28.5691 12.24C28.5691 12.9333 28.7691 13.4867 29.1691 13.9C29.5691 14.3 30.1024 14.5 30.7691 14.5C31.2757 14.5 31.7024 14.3867 32.0491 14.16C32.4091 13.92 32.6957 13.5933 32.9091 13.18C33.1357 12.7667 33.3091 12.2933 33.4291 11.76C33.6157 11.7733 33.7691 11.8267 33.8891 11.92C34.0091 12.0133 34.0691 12.1667 34.0691 12.38C34.0691 12.7267 33.9291 13.08 33.6491 13.44C33.3824 13.8 32.9357 14.1 32.3091 14.34C31.6957 14.58 30.8691 14.7 29.8291 14.7Z" fill="#3F88E7"/>
<path d="M41.1788 14.7C40.2188 14.7 39.3988 14.5533 38.7188 14.26C38.0387 13.9533 37.5188 13.4933 37.1588 12.88C36.8121 12.2667 36.6388 11.4933 36.6388 10.56C36.6388 10.0267 36.7121 9.44667 36.8587 8.82C37.0054 8.19333 37.2388 7.57333 37.5588 6.96C37.8787 6.33333 38.2988 5.76667 38.8188 5.26C39.3388 4.75333 39.9721 4.34667 40.7188 4.04C41.4654 3.73333 42.3454 3.58 43.3587 3.58C44.3454 3.58 45.1121 3.78 45.6588 4.18C46.2054 4.56667 46.4788 5.15333 46.4788 5.94C46.4788 6.63333 46.2188 7.25333 45.6987 7.8C45.1787 8.33333 44.4721 8.76 43.5788 9.08C42.6854 9.38667 41.6654 9.54 40.5187 9.54H39.7788C39.7654 9.63333 39.7521 9.76 39.7388 9.92C39.7254 10.08 39.7121 10.24 39.6987 10.4C39.6987 10.5467 39.6987 10.6667 39.6987 10.76C39.6987 11.6267 39.7721 12.34 39.9188 12.9C40.0788 13.4467 40.2988 13.8467 40.5788 14.1C40.8721 14.3533 41.2254 14.48 41.6388 14.48C42.4254 14.48 43.0521 14.2067 43.5187 13.66C43.9987 13.1133 44.3654 12.4133 44.6188 11.56C44.7521 11.6 44.8588 11.68 44.9388 11.8C45.0188 11.92 45.0588 12.1067 45.0588 12.36C45.0588 12.6933 44.9188 13.04 44.6388 13.4C44.3588 13.76 43.9321 14.0667 43.3587 14.32C42.7987 14.5733 42.0721 14.7 41.1788 14.7ZM40.1588 9.34C40.6388 9.34 41.0854 9.24 41.4988 9.04C41.9254 8.84 42.2988 8.56667 42.6188 8.22C42.9388 7.86 43.1854 7.44667 43.3587 6.98C43.5454 6.5 43.6388 5.98 43.6388 5.42C43.6388 4.82 43.5521 4.40667 43.3787 4.18C43.2188 3.95333 42.9721 3.84 42.6388 3.84C42.3054 3.84 41.9921 3.98 41.6987 4.26C41.4188 4.52667 41.1588 4.91333 40.9188 5.42C40.6787 5.91333 40.4654 6.49333 40.2788 7.16C40.0921 7.82667 39.9388 8.55333 39.8188 9.34H40.1588Z" fill="#3F88E7"/>
<path d="M56.927 14.7C56.1404 14.7 55.5537 14.5067 55.167 14.12C54.7804 13.7333 54.587 13.2133 54.587 12.56C54.587 12.2533 54.6137 11.9133 54.667 11.54C54.7337 11.1667 54.827 10.7267 54.947 10.22L55.207 9.04H51.807L50.607 14.5H47.607L49.447 5.78C49.487 5.60667 49.5204 5.42 49.547 5.22C49.587 5.02 49.607 4.85333 49.607 4.72C49.607 4.45333 49.527 4.26667 49.367 4.16C49.207 4.04 48.9337 3.98 48.547 3.98H48.187L48.207 3.78H52.967L51.847 8.84H55.267L56.407 3.78H59.407L57.787 10.9C57.707 11.2733 57.6337 11.64 57.567 12C57.5137 12.36 57.487 12.6933 57.487 13C57.487 13.3333 57.5604 13.5867 57.707 13.76C57.867 13.9333 58.0737 14.02 58.327 14.02C58.5404 14.02 58.7404 13.9733 58.927 13.88C59.127 13.7867 59.3137 13.6733 59.487 13.54C59.6604 13.4067 59.807 13.28 59.927 13.16L60.047 13.32C59.8337 13.5467 59.5737 13.7667 59.267 13.98C58.9737 14.1933 58.6337 14.3667 58.247 14.5C57.8604 14.6333 57.4204 14.7 56.927 14.7Z" fill="#3F88E7"/>
<path d="M70.9789 14.7C70.4056 14.7 69.9522 14.6133 69.6189 14.44C69.2856 14.2667 69.0456 14.04 68.8989 13.76C68.7522 13.4667 68.6789 13.1533 68.6789 12.82C68.6789 12.7267 68.6856 12.5867 68.6989 12.4C68.7256 12.2 68.7522 12 68.7789 11.8C68.8056 11.5867 68.8256 11.4333 68.8389 11.34H68.7189C68.4122 12.0867 68.0522 12.7067 67.6389 13.2C67.2389 13.6933 66.7789 14.0667 66.2589 14.32C65.7522 14.56 65.1789 14.68 64.5389 14.68C63.9656 14.68 63.5122 14.58 63.1789 14.38C62.8456 14.1667 62.6056 13.8933 62.4589 13.56C62.3256 13.2133 62.2589 12.8467 62.2589 12.46C62.2589 12.1267 62.2989 11.76 62.3789 11.36C62.4589 10.96 62.5322 10.5933 62.5989 10.26L63.4789 5.88C63.5322 5.61333 63.5722 5.37333 63.5989 5.16C63.6389 4.94667 63.6589 4.78667 63.6589 4.68C63.6589 4.41333 63.5789 4.23333 63.4189 4.14C63.2589 4.03333 62.9856 3.98 62.5989 3.98H62.2389L62.2789 3.78H66.9789L65.5189 10.56C65.4656 10.8 65.4122 11.06 65.3589 11.34C65.3189 11.6067 65.2789 11.86 65.2389 12.1C65.2122 12.34 65.1989 12.5467 65.1989 12.72C65.1989 13.0933 65.2656 13.3867 65.3989 13.6C65.5456 13.8133 65.7789 13.92 66.0989 13.92C66.3922 13.92 66.6856 13.8067 66.9789 13.58C67.2722 13.3533 67.5456 13.0533 67.7989 12.68C68.0656 12.3067 68.2989 11.8933 68.4989 11.44C68.6989 10.9867 68.8456 10.5333 68.9389 10.08L70.2989 3.78H73.3589L71.7789 11.16C71.7389 11.3333 71.6989 11.5333 71.6589 11.76C71.6189 11.9867 71.5856 12.2067 71.5589 12.42C71.5456 12.6333 71.5389 12.82 71.5389 12.98C71.5389 13.3533 71.5989 13.6333 71.7189 13.82C71.8522 14.0067 72.0456 14.1 72.2989 14.1C72.5656 14.1 72.8456 14.0067 73.1389 13.82C73.4456 13.6333 73.7256 13.42 73.9789 13.18L74.0989 13.32C73.7656 13.6533 73.3456 13.9667 72.8389 14.26C72.3456 14.5533 71.7256 14.7 70.9789 14.7Z" fill="#3F88E7"/>
<path d="M84.2541 14.7C83.4007 14.7 82.8074 14.5 82.4741 14.1C82.1407 13.7 81.9741 13.2067 81.9741 12.62C81.9741 12.3533 81.9874 12.1 82.0141 11.86C82.0541 11.62 82.1074 11.3467 82.1741 11.04L82.5541 9.3H81.7941C81.4074 9.3 81.0474 9.36 80.7141 9.48C80.3941 9.6 80.1007 9.82667 79.8341 10.16C79.5674 10.48 79.3274 10.94 79.1141 11.54C78.8341 12.34 78.5474 12.9667 78.2541 13.42C77.9741 13.86 77.6741 14.1733 77.3541 14.36C77.0474 14.5467 76.7007 14.64 76.3141 14.64C75.8474 14.64 75.4807 14.5133 75.2141 14.26C74.9607 14.0067 74.8341 13.6667 74.8341 13.24C74.8341 12.8 74.9607 12.4667 75.2141 12.24C75.4674 12.0133 75.7474 11.9 76.0541 11.9C76.0541 12.0467 76.0874 12.2067 76.1541 12.38C76.2341 12.54 76.3541 12.68 76.5141 12.8C76.6874 12.92 76.9074 12.98 77.1741 12.98C77.5741 12.98 77.8941 12.8667 78.1341 12.64C78.3741 12.4133 78.6207 12.0133 78.8741 11.44C79.0741 10.9867 79.2674 10.62 79.4541 10.34C79.6407 10.0467 79.8341 9.82 80.0341 9.66C80.2474 9.5 80.4941 9.38 80.7741 9.3C79.5074 9.26 78.5141 9.04667 77.7941 8.66C77.0741 8.26 76.7141 7.62667 76.7141 6.76C76.7141 6.13333 76.8741 5.58667 77.1941 5.12C77.5274 4.65333 78.0807 4.29333 78.8541 4.04C79.6274 3.77333 80.6741 3.64 81.9941 3.64C82.9941 3.64 83.8874 3.70667 84.6741 3.84C85.4741 3.96 86.1274 4.1 86.6341 4.26L85.0941 11.24C85.0274 11.56 84.9741 11.8733 84.9341 12.18C84.8941 12.4733 84.8741 12.7667 84.8741 13.06C84.8741 13.3667 84.9474 13.6067 85.0941 13.78C85.2407 13.94 85.4407 14.02 85.6941 14.02C85.9874 14.02 86.2541 13.9467 86.4941 13.8C86.7474 13.64 87.0207 13.4267 87.3141 13.16L87.4341 13.32C87.0207 13.68 86.5741 14 86.0941 14.28C85.6274 14.56 85.0141 14.7 84.2541 14.7ZM81.9341 9.1H82.5941L83.7541 3.88C83.5807 3.85333 83.4141 3.83333 83.2541 3.82C83.0941 3.79333 82.8941 3.78 82.6541 3.78C82.1874 3.78 81.7807 3.86667 81.4341 4.04C81.0874 4.2 80.8007 4.42667 80.5741 4.72C80.3607 5.01333 80.2007 5.35333 80.0941 5.74C79.9874 6.11333 79.9341 6.51333 79.9341 6.94C79.9341 7.66 80.1007 8.2 80.4341 8.56C80.7807 8.92 81.2807 9.1 81.9341 9.1Z" fill="#3F88E7"/>
<path d="M100.665 14.72C99.5047 14.72 98.4847 14.52 97.6047 14.12C96.738 13.7067 96.058 13.0667 95.5647 12.2C95.0847 11.3333 94.8447 10.2 94.8447 8.8C94.8447 8.24 94.918 7.58 95.0647 6.82C95.2247 6.06 95.4913 5.28667 95.8647 4.5C96.238 3.7 96.7447 2.96 97.3847 2.28C98.038 1.6 98.8447 1.05333 99.8047 0.64C100.778 0.213333 101.938 0 103.285 0C104.325 0 105.271 0.186667 106.125 0.56C106.978 0.933333 107.651 1.54 108.145 2.38C108.651 3.22 108.905 4.33333 108.905 5.72C108.905 6.13333 108.851 6.64 108.745 7.24C108.651 7.84 108.485 8.48 108.245 9.16C108.018 9.82667 107.698 10.4933 107.285 11.16C106.885 11.8133 106.378 12.4133 105.765 12.96C105.165 13.4933 104.445 13.92 103.605 14.24C102.765 14.56 101.785 14.72 100.665 14.72ZM100.685 14.52C101.351 14.52 101.945 14.3267 102.465 13.94C102.998 13.54 103.465 13.0067 103.865 12.34C104.265 11.6733 104.598 10.92 104.865 10.08C105.131 9.22667 105.331 8.34 105.465 7.42C105.598 6.48667 105.665 5.58 105.665 4.7C105.665 3.5 105.578 2.58 105.405 1.94C105.231 1.28667 104.971 0.833333 104.625 0.58C104.278 0.326666 103.831 0.2 103.285 0.2C102.631 0.2 102.031 0.38 101.485 0.74C100.951 1.1 100.471 1.60667 100.045 2.26C99.6314 2.9 99.278 3.64 98.9847 4.48C98.7047 5.32 98.4914 6.22667 98.3447 7.2C98.198 8.17333 98.1247 9.17333 98.1247 10.2C98.1247 11.2667 98.2247 12.12 98.4247 12.76C98.638 13.3867 98.938 13.84 99.3247 14.12C99.7113 14.3867 100.165 14.52 100.685 14.52Z" fill="#3F88E7"/>
<path d="M112.405 5.68C112.445 5.46667 112.478 5.28 112.505 5.12C112.531 4.96 112.545 4.84 112.545 4.76C112.545 4.45333 112.465 4.24667 112.305 4.14C112.145 4.03333 111.871 3.98 111.485 3.98H111.105L111.145 3.78H115.485L114.945 6.88H115.025C115.265 6.2 115.551 5.61333 115.885 5.12C116.218 4.62667 116.625 4.24667 117.105 3.98C117.585 3.71333 118.165 3.58 118.845 3.58C119.418 3.58 119.925 3.70667 120.365 3.96C120.818 4.21333 121.171 4.60667 121.425 5.14C121.691 5.67333 121.825 6.36 121.825 7.2C121.825 7.81333 121.745 8.46667 121.585 9.16C121.425 9.84 121.178 10.5133 120.845 11.18C120.511 11.8333 120.091 12.4267 119.585 12.96C119.078 13.48 118.485 13.9 117.805 14.22C117.138 14.54 116.371 14.7 115.505 14.7C115.051 14.7 114.671 14.6467 114.365 14.54C114.071 14.4333 113.811 14.3 113.585 14.14C113.545 14.3133 113.511 14.4733 113.485 14.62C113.458 14.78 113.418 14.9733 113.365 15.2L112.925 17.4C112.898 17.56 112.871 17.7267 112.845 17.9C112.818 18.0733 112.805 18.22 112.805 18.34C112.805 18.66 112.905 18.8667 113.105 18.96C113.305 19.0533 113.591 19.1 113.965 19.1H114.625L114.585 19.3H109.505L112.405 5.68ZM115.025 14.44C115.478 14.44 115.891 14.28 116.265 13.96C116.651 13.64 116.991 13.2133 117.285 12.68C117.591 12.1333 117.845 11.52 118.045 10.84C118.258 10.16 118.418 9.46 118.525 8.74C118.631 8.02 118.685 7.32 118.685 6.64C118.685 6.13333 118.645 5.70667 118.565 5.36C118.498 5.01333 118.378 4.74667 118.205 4.56C118.031 4.37333 117.791 4.28 117.485 4.28C117.205 4.28 116.931 4.38667 116.665 4.6C116.398 4.8 116.151 5.06667 115.925 5.4C115.711 5.72 115.525 6.07333 115.365 6.46C115.218 6.83333 115.105 7.19333 115.025 7.54L113.665 13.92C113.785 14.0533 113.958 14.1733 114.185 14.28C114.425 14.3867 114.705 14.44 115.025 14.44Z" fill="#3F88E7"/>
<path d="M132.572 14.7C131.812 14.7 131.239 14.5133 130.852 14.14C130.479 13.7667 130.292 13.2667 130.292 12.64C130.292 12.32 130.312 11.9733 130.352 11.6C130.405 11.2133 130.492 10.7667 130.612 10.26L132.072 3.82C131.965 3.80667 131.865 3.8 131.772 3.8C131.679 3.78667 131.565 3.78 131.432 3.78C130.952 3.78 130.532 3.84667 130.172 3.98C129.825 4.11333 129.512 4.35333 129.232 4.7C128.965 5.03333 128.712 5.51333 128.472 6.14C128.232 6.75333 127.979 7.55333 127.712 8.54C127.405 9.68667 127.112 10.6533 126.832 11.44C126.565 12.2133 126.292 12.84 126.012 13.32C125.732 13.7867 125.425 14.1267 125.092 14.34C124.772 14.54 124.392 14.64 123.952 14.64C123.632 14.64 123.352 14.58 123.112 14.46C122.872 14.34 122.685 14.1733 122.552 13.96C122.432 13.7467 122.372 13.5067 122.372 13.24C122.372 12.9067 122.432 12.64 122.552 12.44C122.685 12.2267 122.852 12.0733 123.052 11.98C123.252 11.8733 123.445 11.82 123.632 11.82C123.632 12.1133 123.699 12.38 123.832 12.62C123.979 12.86 124.239 12.98 124.612 12.98C124.879 12.98 125.125 12.9267 125.352 12.82C125.592 12.7133 125.825 12.5067 126.052 12.2C126.279 11.88 126.505 11.42 126.732 10.82C126.972 10.2067 127.232 9.4 127.512 8.4C127.792 7.36 128.065 6.52 128.332 5.88C128.612 5.24 128.899 4.75333 129.192 4.42C129.485 4.08667 129.812 3.86667 130.172 3.76C130.545 3.64 130.972 3.58 131.452 3.58C132.079 3.58 132.692 3.62 133.292 3.7C133.905 3.76667 134.479 3.85333 135.012 3.96L133.512 11.02C133.432 11.38 133.365 11.76 133.312 12.16C133.259 12.5467 133.232 12.88 133.232 13.16C133.232 13.4933 133.299 13.7333 133.432 13.88C133.579 14.0267 133.759 14.1 133.972 14.1C134.252 14.1 134.519 14.0267 134.772 13.88C135.039 13.7333 135.325 13.5067 135.632 13.2L135.752 13.3C135.445 13.62 135.025 13.9333 134.492 14.24C133.959 14.5467 133.319 14.7 132.572 14.7Z" fill="#3F88E7"/>
<path d="M141.444 14.7C140.151 14.7 139.104 14.3533 138.304 13.66C137.517 12.9667 137.124 11.9133 137.124 10.5C137.124 9.9 137.204 9.28 137.364 8.64C137.537 8 137.797 7.38 138.144 6.78C138.491 6.16667 138.924 5.62 139.444 5.14C139.964 4.66 140.577 4.28 141.284 4C141.991 3.72 142.791 3.58 143.684 3.58C144.457 3.58 145.157 3.72667 145.784 4.02C146.411 4.3 146.911 4.74667 147.284 5.36C147.671 5.97333 147.864 6.78 147.864 7.78C147.864 8.35333 147.777 8.96 147.604 9.6C147.444 10.24 147.197 10.86 146.864 11.46C146.531 12.06 146.111 12.6067 145.604 13.1C145.097 13.58 144.497 13.9667 143.804 14.26C143.111 14.5533 142.324 14.7 141.444 14.7ZM141.484 14.5C141.951 14.5 142.364 14.3267 142.724 13.98C143.084 13.6333 143.397 13.1733 143.664 12.6C143.931 12.0267 144.144 11.3933 144.304 10.7C144.477 9.99333 144.604 9.28 144.684 8.56C144.777 7.82667 144.824 7.14 144.824 6.5C144.824 5.76667 144.784 5.20667 144.704 4.82C144.637 4.43333 144.517 4.16667 144.344 4.02C144.171 3.86 143.924 3.78 143.604 3.78C143.151 3.78 142.737 3.96 142.364 4.32C142.004 4.66667 141.684 5.13333 141.404 5.72C141.137 6.29333 140.911 6.93333 140.724 7.64C140.537 8.34667 140.397 9.06 140.304 9.78C140.224 10.4867 140.184 11.14 140.184 11.74C140.184 12.7267 140.284 13.4333 140.484 13.86C140.697 14.2867 141.031 14.5 141.484 14.5Z" fill="#3F88E7"/>
<path d="M154.175 14.7C152.721 14.7 151.615 14.3333 150.855 13.6C150.108 12.8533 149.735 11.7933 149.735 10.42C149.735 9.86 149.801 9.27333 149.935 8.66C150.068 8.03333 150.281 7.42 150.575 6.82C150.881 6.22 151.281 5.68 151.775 5.2C152.281 4.70667 152.901 4.31333 153.635 4.02C154.368 3.72667 155.228 3.58 156.215 3.58C157.241 3.58 158.048 3.78 158.635 4.18C159.221 4.56667 159.515 5.13333 159.515 5.88C159.515 6.48 159.341 6.99333 158.995 7.42C158.661 7.83333 158.175 8.16667 157.535 8.42C156.895 8.67333 156.128 8.86 155.235 8.98C155.635 9.02 156.035 9.08667 156.435 9.18C156.848 9.27333 157.228 9.41333 157.575 9.6C157.935 9.78667 158.221 10.04 158.435 10.36C158.648 10.6667 158.755 11.06 158.755 11.54C158.755 12.14 158.581 12.68 158.235 13.16C157.901 13.6267 157.395 14 156.715 14.28C156.035 14.56 155.188 14.7 154.175 14.7ZM154.175 14.5C154.535 14.5 154.855 14.38 155.135 14.14C155.415 13.8867 155.635 13.5333 155.795 13.08C155.955 12.6133 156.035 12.06 156.035 11.42C156.035 10.8867 155.968 10.46 155.835 10.14C155.701 9.82 155.521 9.58 155.295 9.42C155.081 9.24667 154.828 9.12667 154.535 9.06C154.441 9.07333 154.288 9.09333 154.075 9.12C153.875 9.13333 153.661 9.15333 153.435 9.18C153.221 9.19333 153.041 9.2 152.895 9.2C152.868 9.36 152.841 9.59333 152.815 9.9C152.788 10.2067 152.768 10.5067 152.755 10.8C152.741 11.0933 152.735 11.3067 152.735 11.44C152.735 12.2 152.788 12.8067 152.895 13.26C153.015 13.7 153.181 14.02 153.395 14.22C153.621 14.4067 153.881 14.5 154.175 14.5ZM153.095 9C153.628 9 154.115 8.91333 154.555 8.74C155.008 8.55333 155.395 8.28667 155.715 7.94C156.035 7.59333 156.281 7.17333 156.455 6.68C156.628 6.18667 156.715 5.62667 156.715 5C156.715 4.58667 156.648 4.28 156.515 4.08C156.395 3.88 156.208 3.78 155.955 3.78C155.661 3.78 155.361 3.9 155.055 4.14C154.761 4.36667 154.475 4.70667 154.195 5.16C153.928 5.61333 153.681 6.16 153.455 6.8C153.241 7.44 153.068 8.17333 152.935 9H153.095Z" fill="#3F88E7"/>
<path d="M164.088 14.7C163.422 14.7 162.855 14.5533 162.388 14.26C161.935 13.9667 161.588 13.5333 161.348 12.96C161.122 12.3867 161.008 11.6933 161.008 10.88C161.008 10.32 161.082 9.71333 161.228 9.06C161.388 8.39333 161.628 7.74 161.948 7.1C162.282 6.46 162.695 5.87333 163.188 5.34C163.695 4.80667 164.295 4.38 164.988 4.06C165.682 3.74 166.475 3.58 167.368 3.58C167.875 3.58 168.282 3.64 168.588 3.76C168.895 3.88 169.148 4.03333 169.348 4.22L171.428 3.78H172.228L170.748 10.74C170.708 10.94 170.668 11.1667 170.628 11.42C170.588 11.66 170.548 11.9067 170.508 12.16C170.482 12.4 170.468 12.6267 170.468 12.84C170.468 13.2533 170.535 13.56 170.668 13.76C170.815 13.96 171.002 14.06 171.228 14.06C171.508 14.06 171.775 13.98 172.028 13.82C172.282 13.66 172.515 13.4933 172.728 13.32L172.828 13.5C172.562 13.7 172.275 13.8933 171.968 14.08C171.675 14.2667 171.342 14.4133 170.968 14.52C170.595 14.64 170.168 14.7 169.688 14.7C169.088 14.7 168.602 14.54 168.228 14.22C167.868 13.9 167.688 13.4067 167.688 12.74C167.688 12.3667 167.702 12.0533 167.728 11.8C167.755 11.5467 167.788 11.3133 167.828 11.1H167.788C167.388 12.3667 166.888 13.2867 166.288 13.86C165.688 14.42 164.955 14.7 164.088 14.7ZM165.248 13.92C165.568 13.92 165.862 13.8067 166.128 13.58C166.395 13.3533 166.635 13.0533 166.848 12.68C167.075 12.3067 167.268 11.9067 167.428 11.48C167.588 11.0533 167.715 10.64 167.808 10.24L169.108 4.32C168.988 4.17333 168.822 4.06 168.608 3.98C168.408 3.88667 168.175 3.84 167.908 3.84C167.415 3.84 166.968 4.00667 166.568 4.34C166.168 4.66 165.808 5.1 165.488 5.66C165.182 6.20667 164.922 6.82 164.708 7.5C164.495 8.16667 164.335 8.86 164.228 9.58C164.122 10.2867 164.068 10.9533 164.068 11.58C164.068 12.2067 164.122 12.6933 164.228 13.04C164.335 13.3733 164.475 13.6067 164.648 13.74C164.835 13.86 165.035 13.92 165.248 13.92Z" fill="#3F88E7"/>
</svg>
